<svg width="277" height="111" viewBox="0 0 277 111" fill="none" xmlns="http://www.w3.org/2000/svg">
<path d="M138.5 0L145.011 17.6201L166.081 17.6201L149.035 28.5099L155.546 46.1299L138.5 35.2401L121.454 46.1299L127.965 28.5099L110.919 17.6201L131.989 17.6201L138.5 0Z" fill="url(#paint0_linear_8_8)"/>
<path d="M11.0273 87.1328C15.0234 90.8867 20.5938 92.7031 27.4961 92.7031C37.4258 92.7031 43.7227 87.7383 43.7227 80.2305C43.7227 75.1445 40.5742 72.1172 36.0938 70.6641C33.9141 69.9375 31.0078 68.9688 27.2539 68.1211C20.2305 66.4258 16.8398 64.6094 16.8398 60.1289C16.8398 55.043 20.957 51.8945 27.8594 51.8945C32.8242 51.8945 36.9414 53.5898 41.0586 57.1016L43.1172 53.1055C39.4844 49.4727 34.0352 47.5352 27.8594 47.5352C18.1719 47.5352 11.7539 52.7422 11.7539 60.3711C11.7539 65.5781 14.7812 68.7266 19.1406 70.543C21.3203 71.3906 24.1055 72.1172 27.4961 72.9648C34.7617 74.6602 38.5156 75.75 38.6367 80.4727C38.7578 85.4375 34.6406 88.3438 27.4961 88.3438C21.5625 88.3438 17.3242 86.8906 12.8438 83.2578L11.0273 87.1328ZM67.2148 60.9766H58.2539V51.2891L53.2891 52.9844V60.9766H47.2344V64.9727H53.2891V82.7734C53.2891 89.1914 56.8008 92.7031 62.7344 92.7031C64.3086 92.7031 65.7617 92.4609 67.0938 91.9766V87.7383C66.0039 88.1016 64.9141 88.3438 63.7031 88.3438C60.3125 88.3438 58.2539 86.6484 58.2539 82.0469V64.9727H67.2148V60.9766ZM95.0664 66.4258C93.1289 62.5508 89.375 60.25 84.5312 60.25C76.2969 60.25 70.7266 66.9102 70.7266 76.5977C70.7266 86.2852 76.1758 92.7031 84.5312 92.7031C89.375 92.7031 93.25 90.5234 95.0664 86.5273V92.2188H100.031V60.9766H95.0664V66.4258ZM95.0664 76.4766C95.0664 84.1055 91.6758 88.4648 85.5 88.4648C79.3242 88.4648 75.8125 84.2266 75.8125 76.5977C75.8125 68.9688 79.3242 64.4883 85.5 64.4883C91.6758 64.4883 95.0664 68.7266 95.0664 76.4766ZM125.219 60.6133C124.371 60.3711 123.402 60.25 122.434 60.25C117.953 60.25 114.199 62.5508 112.625 66.7891L112.141 60.9766H107.418C107.66 63.6406 107.902 66.5469 107.902 69.8164V92.2188H112.867V74.418C112.867 71.7539 113.715 69.4531 115.047 67.6367C116.621 65.6992 118.801 64.7305 121.828 64.7305C123.039 64.7305 124.25 64.9727 125.098 65.2148L125.219 60.6133ZM162.273 87.8594H140.113V48.0195H135.027V92.2188H162.273V87.8594ZM178.137 53.4688V47.7773H172.082V53.4688H178.137ZM177.531 60.9766H172.566V92.2188H177.531V60.9766ZM210.105 66.4258C208.168 62.5508 204.414 60.25 199.449 60.25C191.094 60.25 185.523 66.5469 185.523 75.75C185.523 85.0742 191.094 91.25 199.449 91.25C204.414 91.25 208.168 88.9492 210.105 85.0742V92.4609C210.105 98.6367 207.078 101.906 201.023 101.906C196.785 101.906 193.637 100.938 189.641 98.7578L188.793 102.875C192.184 104.934 196.301 106.023 201.023 106.023C210.227 106.023 215.07 101.18 215.07 91.9766V60.9766H210.105V66.4258ZM210.105 75.75C210.105 82.7734 206.473 87.1328 200.418 87.1328C194.242 87.1328 190.609 82.7734 190.609 75.75C190.609 68.7266 194.242 64.4883 200.418 64.4883C206.473 64.4883 210.105 68.7266 210.105 75.75ZM249.703 72.6016C249.703 64.3672 245.949 60.25 238.441 60.25C233.84 60.25 229.965 62.3086 227.906 66.0625V46.5664H222.941V92.2188H227.906V74.418C227.906 68.3633 231.781 64.4883 237.473 64.4883C242.438 64.4883 244.738 67.1523 244.738 72.8438V92.2188H249.703V72.6016ZM275.012 60.9766H266.051V51.2891L261.086 52.9844V60.9766H255.031V64.9727H261.086V82.7734C261.086 89.1914 264.598 92.7031 270.531 92.7031C272.105 92.7031 273.559 92.4609 274.891 91.9766V87.7383C273.801 88.1016 272.711 88.3438 271.5 88.3438C268.109 88.3438 266.051 86.6484 266.051 82.0469V64.9727H275.012V60.9766Z" fill="white"/>
<defs>
<linearGradient id="paint0_linear_8_8" x1="138.5" y1="0" x2="138.5" y2="51" gradientUnits="userSpaceOnUse">
<stop stop-color="#E654C6"/>
<stop offset="0.0001" stop-color="#47F9B9" stop-opacity="0.99"/>
</linearGradient>
</defs>
</svg>
